HIERARCHY
ROOT Root
{
  OFFSET 0.0 0.0 0.0
  CHANNELS 6 Xposition Yposition Zposition Zrotation Yrotation Xrotation
  JOINT Hips
  {
    OFFSET 0.0 100.0 0.0
    CHANNELS 6 Xposition Yposition Zposition Zrotation Yrotation Xrotation
    JOINT Spine1
    {
      OFFSET 5.003913 -0.037094 -0.013727
      CHANNELS 3 Zrotation Yrotation Xrotation
      JOINT Spine2
      {
        OFFSET 7.125363 -1e-06 0.0
        CHANNELS 3 Zrotation Yrotation Xrotation
        JOINT Chest
        {
          OFFSET 7.594027 1e-06 0.0
          CHANNELS 3 Zrotation Yrotation Xrotation
          JOINT Neck1
          {
            OFFSET 26.313086 -0.460272 -0.181672
            CHANNELS 3 Zrotation Yrotation Xrotation
            JOINT Neck2
            {
              OFFSET 8.045911 0.0 0.0
              CHANNELS 3 Zrotation Yrotation Xrotation
              JOINT Head
              {
                OFFSET 6.432774 0.0 0.0
                CHANNELS 3 Zrotation Yrotation Xrotation
                JOINT HeadEnd
                {
                  OFFSET 16.169773 0.06451 0.00362
                  CHANNELS 3 Zrotation Yrotation Xrotation
                }
                JOINT Jaw
                {
                  OFFSET 0.108741 3.12938 0.002639
                  CHANNELS 3 Zrotation Yrotation Xrotation
                }
                JOINT LeftEye
                {
                  OFFSET 4.45173 8.166359 3.206392
                  CHANNELS 3 Zrotation Yrotation Xrotation
                }
                JOINT RightEye
                {
                  OFFSET 4.436895 8.135758 -3.222429
                  CHANNELS 3 Zrotation Yrotation Xrotation
                }
              }
            }
          }
          JOINT LeftShoulder
          {
            OFFSET 23.218927 5.195579 1.621656
            CHANNELS 3 Zrotation Yrotation Xrotation
            JOINT LeftArm
            {
              OFFSET 15.902118 2e-06 -2e-06
              CHANNELS 3 Zrotation Yrotation Xrotation
              JOINT LeftForeArm
              {
                OFFSET 28.739307 0.0 -1e-06
                CHANNELS 3 Zrotation Yrotation Xrotation
                JOINT LeftHand
                {
                  OFFSET 27.093981 -4e-06 0.0
                  CHANNELS 3 Zrotation Yrotation Xrotation
                  JOINT LeftHandThumb1
                  {
                    OFFSET 2.276781 3.380274 0.83384
                    CHANNELS 3 Zrotation Yrotation Xrotation
                    JOINT LeftHandThumb2
                    {
                      OFFSET 4.705309 -1e-06 -1e-06
                      CHANNELS 3 Zrotation Yrotation Xrotation
                      JOINT LeftHandThumb3
                      {
                        OFFSET 2.798515 0.0 3e-06
                        CHANNELS 3 Zrotation Yrotation Xrotation
                        JOINT LeftHandThumbEnd
                        {
                          OFFSET 3.180793 4e-06 -4e-06
                          CHANNELS 3 Zrotation Yrotation Xrotation
                        }
                      }
                    }
                  }
                  JOINT LeftHandIndex1
                  {
                    OFFSET 3.247786 2.352677 0.137192
                    CHANNELS 3 Zrotation Yrotation Xrotation
                    JOINT LeftHandIndex2
                    {
                      OFFSET 6.367095 1e-06 0.0
                      CHANNELS 3 Zrotation Yrotation Xrotation
                      JOINT LeftHandIndex3
                      {
                        OFFSET 3.662364 0.0 0.0
                        CHANNELS 3 Zrotation Yrotation Xrotation
                        JOINT LeftHandIndex4
                        {
                          OFFSET 2.329242 4e-06 -4e-06
                          CHANNELS 3 Zrotation Yrotation Xrotation
                          JOINT LeftHandIndexEnd
                          {
                            OFFSET 2.767823 1e-06 0.0
                            CHANNELS 3 Zrotation Yrotation Xrotation
                          }
                        }
                      }
                    }
                  }
                  JOINT LeftHandMiddle1
                  {
                    OFFSET 3.163612 0.945023 -0.406112
                    CHANNELS 3 Zrotation Yrotation Xrotation
                    JOINT LeftHandMiddle2
                    {
                      OFFSET 6.276789 3e-06 0.0
                      CHANNELS 3 Zrotation Yrotation Xrotation
                      JOINT LeftHandMiddle3
                      {
                        OFFSET 4.35652 -1e-06 4e-06
                        CHANNELS 3 Zrotation Yrotation Xrotation
                        JOINT LeftHandMiddle4
                        {
                          OFFSET 2.996877 0.0 8e-06
                          CHANNELS 3 Zrotation Yrotation Xrotation
                          JOINT LeftHandMiddleEnd
                          {
                            OFFSET 2.323256 3e-06 -4e-06
                            CHANNELS 3 Zrotation Yrotation Xrotation
                          }
                        }
                      }
                    }
                  }
                  JOINT LeftHandRing1
                  {
                    OFFSET 2.882606 -0.309162 0.107445
                    CHANNELS 3 Zrotation Yrotation Xrotation
                    JOINT LeftHandRing2
                    {
                      OFFSET 6.033198 0.0 4e-06
                      CHANNELS 3 Zrotation Yrotation Xrotation
                      JOINT LeftHandRing3
                      {
                        OFFSET 4.350578 3e-06 0.0
                        CHANNELS 3 Zrotation Yrotation Xrotation
                        JOINT LeftHandRing4
                        {
                          OFFSET 2.651321 2e-06 -7e-06
                          CHANNELS 3 Zrotation Yrotation Xrotation
                          JOINT LeftHandRingEnd
                          {
                            OFFSET 1.937663 1e-06 -4e-06
                            CHANNELS 3 Zrotation Yrotation Xrotation
                          }
                        }
                      }
                    }
                  }
                  JOINT LeftHandPinky1
                  {
                    OFFSET 2.865315 -1.525436 0.575687
                    CHANNELS 3 Zrotation Yrotation Xrotation
                    JOINT LeftHandPinky2
                    {
                      OFFSET 5.54936 1e-06 -8e-06
                      CHANNELS 3 Zrotation Yrotation Xrotation
                      JOINT LeftHandPinky3
                      {
                        OFFSET 3.070974 0.0 -4e-06
                        CHANNELS 3 Zrotation Yrotation Xrotation
                        JOINT LeftHandPinky4
                        {
                          OFFSET 1.549672 1e-06 0.0
                          CHANNELS 3 Zrotation Yrotation Xrotation
                          JOINT LeftHandPinkyEnd
                          {
                            OFFSET 1.952123 0.0 0.0
                            CHANNELS 3 Zrotation Yrotation Xrotation
                          }
                        }
                      }
                    }
                  }
                }
              }
            }
          }
          JOINT RightShoulder
          {
            OFFSET 23.161716 5.296122 -1.380114
            CHANNELS 3 Zrotation Yrotation Xrotation
            JOINT RightArm
            {
              OFFSET -16.027195 -2e-06 1.1e-05
              CHANNELS 3 Zrotation Yrotation Xrotation
              JOINT RightForeArm
              {
                OFFSET -28.736639 4e-06 2e-06
                CHANNELS 3 Zrotation Yrotation Xrotation
                JOINT RightHand
                {
                  OFFSET -27.133619 6e-06 0.0
                  CHANNELS 3 Zrotation Yrotation Xrotation
                  JOINT RightHandThumb1
                  {
                    OFFSET -2.274328 -3.351035 -0.83067
                    CHANNELS 3 Zrotation Yrotation Xrotation
                    JOINT RightHandThumb2
                    {
                      OFFSET -4.703594 -3e-06 2e-06
                      CHANNELS 3 Zrotation Yrotation Xrotation
                      JOINT RightHandThumb3
                      {
                        OFFSET -2.794935 -4e-06 -3e-06
                        CHANNELS 3 Zrotation Yrotation Xrotation
                        JOINT RightHandThumbEnd
                        {
                          OFFSET -3.183852 4e-06 1e-06
                          CHANNELS 3 Zrotation Yrotation Xrotation
                        }
                      }
                    }
                  }
                  JOINT RightHandIndex1
                  {
                    OFFSET -3.253496 -2.33755 -0.127667
                    CHANNELS 3 Zrotation Yrotation Xrotation
                    JOINT RightHandIndex2
                    {
                      OFFSET -6.344434 0.0 0.0
                      CHANNELS 3 Zrotation Yrotation Xrotation
                      JOINT RightHandIndex3
                      {
                        OFFSET -3.654871 0.0 -8e-06
                        CHANNELS 3 Zrotation Yrotation Xrotation
                        JOINT RightHandIndex4
                        {
                          OFFSET -2.327586 -1e-06 0.0
                          CHANNELS 3 Zrotation Yrotation Xrotation
                          JOINT RightHandIndexEnd
                          {
                            OFFSET -2.770001 3e-06 8e-06
                            CHANNELS 3 Zrotation Yrotation Xrotation
                          }
                        }
                      }
                    }
                  }
                  JOINT RightHandMiddle1
                  {
                    OFFSET -3.168223 -0.944764 0.411762
                    CHANNELS 3 Zrotation Yrotation Xrotation
                    JOINT RightHandMiddle2
                    {
                      OFFSET -6.266691 -1e-06 -4e-06
                      CHANNELS 3 Zrotation Yrotation Xrotation
                      JOINT RightHandMiddle3
                      {
                        OFFSET -4.348901 0.0 0.0
                        CHANNELS 3 Zrotation Yrotation Xrotation
                        JOINT RightHandMiddle4
                        {
                          OFFSET -3.00024 2e-06 -4e-06
                          CHANNELS 3 Zrotation Yrotation Xrotation
                          JOINT RightHandMiddleEnd
                          {
                            OFFSET -2.321477 -4e-06 -4e-06
                            CHANNELS 3 Zrotation Yrotation Xrotation
                          }
                        }
                      }
                    }
                  }
                  JOINT RightHandRing1
                  {
                    OFFSET -2.885654 0.293261 -0.119232
                    CHANNELS 3 Zrotation Yrotation Xrotation
                    JOINT RightHandRing2
                    {
                      OFFSET -6.032835 -1e-06 -4e-06
                      CHANNELS 3 Zrotation Yrotation Xrotation
                      JOINT RightHandRing3
                      {
                        OFFSET -4.33881 0.0 -4e-06
                        CHANNELS 3 Zrotation Yrotation Xrotation
                        JOINT RightHandRing4
                        {
                          OFFSET -2.654903 -4e-06 -4e-06
                          CHANNELS 3 Zrotation Yrotation Xrotation
                          JOINT RightHandRingEnd
                          {
                            OFFSET -1.935122 0.0 4e-06
                            CHANNELS 3 Zrotation Yrotation Xrotation
                          }
                        }
                      }
                    }
                  }
                  JOINT RightHandPinky1
                  {
                    OFFSET -2.866241 1.503904 -0.60527
                    CHANNELS 3 Zrotation Yrotation Xrotation
                    JOINT RightHandPinky2
                    {
                      OFFSET -5.553177 -2e-06 0.0
                      CHANNELS 3 Zrotation Yrotation Xrotation
                      JOINT RightHandPinky3
                      {
                        OFFSET -3.062664 -1e-06 -4e-06
                        CHANNELS 3 Zrotation Yrotation Xrotation
                        JOINT RightHandPinky4
                        {
                          OFFSET -1.546529 2e-06 4e-06
                          CHANNELS 3 Zrotation Yrotation Xrotation
                          JOINT RightHandPinkyEnd
                          {
                            OFFSET -1.952341 0.0 -4e-06
                            CHANNELS 3 Zrotation Yrotation Xrotation
                          }
                        }
                      }
                    }
                  }
                }
              }
            }
          }
        }
      }
    }
    JOINT LeftLeg
    {
      OFFSET -8.443107 2.567604 10.043214
      CHANNELS 3 Zrotation Yrotation Xrotation
      JOINT LeftShin
      {
        OFFSET 43.229198 1e-06 -1e-06
        CHANNELS 3 Zrotation Yrotation Xrotation
        JOINT LeftFoot
        {
          OFFSET 42.298611 1e-06 1e-06
          CHANNELS 3 Zrotation Yrotation Xrotation
          JOINT LeftToeBase
          {
            OFFSET 14.165858 1e-06 0.0
            CHANNELS 3 Zrotation Yrotation Xrotation
            JOINT LeftToeEnd
            {
              OFFSET 6.7141 -0.234461 0.0
              CHANNELS 3 Zrotation Yrotation Xrotation
            }
          }
        }
      }
    }
    JOINT RightLeg
    {
      OFFSET -8.303923 2.592729 -10.047278
      CHANNELS 3 Zrotation Yrotation Xrotation
      JOINT RightShin
      {
        OFFSET -43.369682 0.0 1e-06
        CHANNELS 3 Zrotation Yrotation Xrotation
        JOINT RightFoot
        {
          OFFSET -42.260784 4e-06 2e-06
          CHANNELS 3 Zrotation Yrotation Xrotation
          JOINT RightToeBase
          {
            OFFSET -14.222245 -2e-06 -1e-06
            CHANNELS 3 Zrotation Yrotation Xrotation
            JOINT RightToeEnd
            {
              OFFSET -6.660062 0.232574 -2e-06
              CHANNELS 3 Zrotation Yrotation Xrotation
            }
          }
        }
      }
    }
  }
}
MOTION
Frames: 4
Frame Time: 0.03333333333333333
0.0 0.0 0.0 0.0 -0.0 0.0 -9.253693 49.323212 148.994781 90.140877 -47.515034 89.182518 14.801105 -1.815583 1.136332 -3.969085 -0.609203 2.929867 27.30825 -5.487732 0.143447 26.069395 -4.238063 1.955109 -2.661935 -0.528372 -1.9663 -24.946684 -5.667031 -2.472826 6e-06 0.0 0.0 -0.201687 -0.040621 0.015418 0.101825 -0.045349 0.095665 0.114431 -0.038519 -0.063435 -24.501633 -79.06604 32.622742 85.360458 -4.443508 -26.150457 13.171254 -1.234998 -0.086511 79.648827 68.102364 81.924469 17.636629 -26.322731 52.411201 -19.46666 -14.3956 29.410395 -2e-06 -8.774822 -2e-06 15.695942 -18.486946 6.306756 -0.609777 -1.795653 -3.889328 -4.80709 -11.046811 -2.937851 4e-06 -20.976021 0.0 -5.019969 -25.033562 -4.031882 6e-06 0.0 -1e-06 -10.634537 -5.686971 -3.565588 10.573276 -17.922955 -3.113901 2e-06 -13.821211 1e-06 -0.501777 -31.181505 -4.027017 -11.167935 -59.531281 7.540586 -13.982716 -7.150198 -2.875042 13.772729 -8.401493 -3.218243 0.347733 -34.211552 0.771654 -0.963028 -17.733368 2.62102 -0.0 -0.0 -0.0 -17.346422 -20.095221 -4.201782 21.757561 -1.638376 3.866429 1e-06 -6.338824 1e-06 -1.69759 -22.591743 -6.194008 -1e-06 -7e-06 -1e-06 -171.101273 -60.332401 -4.337343 65.087357 2.650563 -52.723598 14.346905 -1.057423 -0.273083 32.93108 52.185322 36.190907 22.182117 -20.375891 49.933308 -16.701817 -16.74353 28.47653 -2e-06 -12.690603 -1e-06 15.826166 -17.262867 2.543924 -0.105919 -1.513855 -4.275881 -5.039042 -5.612871 -2.953557 5e-06 -11.020524 -2e-06 -6.111297 -15.89533 -3.84047 -0.0 1e-06 0.0 -10.283371 -5.680287 -4.341838 11.028296 -11.302406 -2.372633 -1.384268 -14.238577 -6.32012 -0.625437 -26.924187 -3.8276 -3.716595 -50.173527 -4.223293 -13.708527 -7.363475 -3.720939 18.141151 -14.052739 -3.242674 6e-06 -18.78727 -2e-06 -0.429712 -8.456044 2.555504 -1e-06 -1e-06 0.0 -15.923536 -20.094482 -5.473584 30.419218 -7.190827 1.735926 2e-06 -8.162925 0.0 -1.861903 -22.861467 -6.167941 -1e-06 -2e-06 -1e-06 103.859337 -7.218966 11.829602 128.656967 0.523817 0.488606 -44.545788 17.093508 6.440922 -7.836629 1.359756 2.178814 -1.000001 0.0 0.0 -33.906288 3.443278 5.442521 87.856247 0.462467 -0.43372 -38.947338 19.14719 0.38598 -9.399894 0.476874 1.449381 -1.000004 0.0 1e-06 
0.0 0.0 0.0 0.0 -0.0 0.0 -8.831874 48.838058 151.403076 90.338829 -47.290218 87.225937 14.607514 -2.004981 1.221077 -4.125903 -0.61392 3.232486 27.278614 -5.779091 0.546754 26.316582 -4.944903 1.753486 -2.654955 -0.406476 -1.691679 -25.283213 -5.761409 -1.952169 6e-06 0.0 -0.0 -0.202404 -0.088432 0.021217 0.093934 -0.115101 0.116455 0.118701 -0.066542 -0.073425 -28.633232 -79.919853 37.143688 84.717995 -6.749484 -25.802809 13.779384 -1.220273 -0.118191 82.726334 68.009995 85.301453 17.636641 -26.322721 52.411182 -19.46666 -14.395596 29.410378 -1e-06 -8.77482 -2e-06 15.757515 -18.372705 6.244046 -0.609777 -1.795653 -3.889327 -4.807089 -11.046809 -2.937851 4e-06 -20.976019 -0.0 -5.019969 -25.033556 -4.03188 6e-06 0.0 0.0 -10.634535 -5.68697 -3.565587 10.573276 -17.922951 -3.1139 3e-06 -13.821205 0.0 -0.501776 -31.181498 -4.027017 -11.077759 -59.564976 7.376319 -13.982714 -7.150197 -2.875042 13.77273 -8.401492 -3.21824 0.347735 -34.211544 0.771653 -0.963027 -17.733368 2.621018 0.0 -0.0 -0.0 -17.34642 -20.095217 -4.201781 21.757557 -1.638374 3.866429 1e-06 -6.338821 0.0 -1.697589 -22.591742 -6.194006 -1e-06 -6e-06 -1e-06 -171.480072 -59.635105 -4.055846 67.159096 1.830023 -52.09639 13.868913 -0.729445 -0.232624 32.538147 53.267673 35.681473 22.182117 -20.375891 49.933308 -16.701807 -16.743525 28.476522 -2e-06 -12.690598 -2e-06 15.922869 -17.371675 2.599748 -0.105919 -1.513855 -4.27588 -5.039041 -5.612869 -2.953557 5e-06 -11.020524 -2e-06 -6.111296 -15.89533 -3.840471 0.0 -0.0 0.0 -10.283369 -5.680288 -4.341839 11.028291 -11.302404 -2.372631 -1.384268 -14.238575 -6.32012 -0.625438 -26.924179 -3.827599 -3.839559 -50.464497 -4.053728 -13.708522 -7.363475 -3.72094 18.141146 -14.052737 -3.242671 6e-06 -18.787268 -1e-06 -0.42971 -8.456043 2.555503 -1e-06 0.0 -1e-06 -15.923532 -20.094481 -5.473585 30.419205 -7.190826 1.735928 2e-06 -8.162921 1e-06 -1.861903 -22.861465 -6.16794 -1e-06 -3e-06 -1e-06 102.833771 -7.039196 11.680989 129.506668 0.668481 0.568167 -44.194881 18.052198 6.933797 -8.334341 1.356211 2.087098 -0.999999 0.0 0.0 -30.747662 3.343233 6.397163 84.321907 0.054862 -0.463323 -37.116737 19.037584 0.571481 -9.117617 0.485378 1.454832 -1.000003 -1e-06 1e-06 
0.0 0.0 0.0 0.0 -0.0 0.0 -8.431794 48.3769 153.872421 90.561478 -47.346676 85.723602 14.337683 -2.091481 1.281654 -4.34446 -0.651157 3.388879 27.05262 -5.913345 0.731096 26.428488 -5.310261 1.561871 -2.667426 -0.308808 -1.462931 -25.498489 -5.835219 -1.49531 6e-06 -0.0 0.0 -0.213243 -0.134345 0.024296 0.042826 -0.173659 0.122974 0.072909 -0.100362 -0.074388 -31.598692 -80.831383 40.393089 83.795227 -9.457929 -25.69706 14.358751 -1.114865 -0.115964 85.06765 67.861931 87.600037 17.636625 -26.322725 52.411182 -19.466652 -14.395597 29.410378 -1e-06 -8.774819 -2e-06 15.861926 -18.298006 6.143799 -0.609776 -1.795654 -3.889327 -4.807086 -11.046809 -2.93785 4e-06 -20.976011 1e-06 -5.019971 -25.033546 -4.031877 6e-06 0.0 0.0 -10.634533 -5.686967 -3.565587 10.57327 -17.922947 -3.113898 3e-06 -13.821205 1e-06 -0.501778 -31.181498 -4.027013 -11.095828 -59.616371 7.297916 -13.982711 -7.150196 -2.875041 13.772727 -8.401491 -3.21824 0.347731 -34.21154 0.771658 -0.963029 -17.733366 2.621019 0.0 0.0 -0.0 -17.346413 -20.095211 -4.201779 21.757555 -1.638375 3.866426 1e-06 -6.338824 1e-06 -1.69759 -22.59174 -6.194003 0.0 -6e-06 -2e-06 -172.70636 -59.190201 -3.036807 69.997169 0.54643 -51.834888 13.729897 -0.465842 -0.173252 33.555996 54.692772 36.549347 22.182114 -20.375885 49.933296 -16.701809 -16.743526 28.476521 -3e-06 -12.6906 -1e-06 15.958389 -17.470003 2.673769 -0.10592 -1.513856 -4.275879 -5.039042 -5.61287 -2.953556 4e-06 -11.020526 -2e-06 -6.111299 -15.89533 -3.84047 0.0 1e-06 -1e-06 -10.283369 -5.680287 -4.341836 11.028292 -11.302405 -2.372633 -1.384268 -14.238578 -6.32012 -0.625441 -26.924187 -3.8276 -4.008001 -50.603054 -3.896162 -13.708522 -7.363477 -3.720938 18.141146 -14.052738 -3.242673 5e-06 -18.78727 -2e-06 -0.429712 -8.456043 2.555503 -1e-06 0.0 0.0 -15.923536 -20.094482 -5.473582 30.419207 -7.190825 1.735927 2e-06 -8.162925 -0.0 -1.861902 -22.861467 -6.167942 -1e-06 -2e-06 -1e-06 102.814056 -6.830734 11.333814 129.956924 0.836769 0.605741 -44.656616 18.22101 6.698785 -8.623858 1.352913 2.057323 -0.999998 -0.0 -0.0 -27.788473 2.893832 7.006362 80.493019 -0.343813 -0.466599 -35.20723 19.040335 0.778394 -8.870255 0.508327 1.46226 -1.000005 0.0 0.0 
0.0 0.0 0.0 0.0 -0.0 0.0 -8.072942 47.939724 156.370728 91.06105 -47.700264 84.692139 13.989769 -2.122012 1.30032 -4.578549 -0.724406 3.360761 26.68206 -5.929043 0.617668 26.331303 -5.262764 1.435039 -2.710487 -0.221323 -1.35256 -25.456015 -5.953535 -1.162271 6e-06 1e-06 -0.0 -0.220647 -0.159231 0.027154 -0.041009 -0.195501 0.11546 -0.017327 -0.12626 -0.061964 -32.784698 -81.83432 41.791088 82.709724 -12.428377 -26.326712 14.859377 -0.875236 -0.072033 86.38269 67.308067 88.076141 17.636618 -26.322725 52.411182 -19.466654 -14.395597 29.410378 -1e-06 -8.774819 -2e-06 15.941377 -18.245251 6.004439 -0.609776 -1.795653 -3.889327 -4.807088 -11.046809 -2.93785 5e-06 -20.976011 0.0 -5.019969 -25.033552 -4.031878 6e-06 -0.0 -0.0 -10.634532 -5.686969 -3.565586 10.573275 -17.922947 -3.113901 3e-06 -13.821205 2e-06 -0.501777 -31.181505 -4.027014 -11.099024 -59.642921 7.235464 -13.982711 -7.150195 -2.875041 13.772727 -8.401491 -3.218241 0.347734 -34.211544 0.771656 -0.963028 -17.733366 2.621019 0.0 -0.0 0.0 -17.346415 -20.095211 -4.20178 21.757557 -1.638375 3.866426 1e-06 -6.338821 1e-06 -1.697589 -22.591738 -6.194005 -1e-06 -6e-06 -2e-06 -174.714035 -58.933426 -1.428115 73.419403 -1.183855 -52.228218 13.689395 -0.352227 -0.125435 36.358067 56.191273 39.08046 22.18211 -20.375891 49.933323 -16.701817 -16.74353 28.476534 -2e-06 -12.690601 0.0 15.927127 -17.476147 2.769737 -0.105919 -1.513856 -4.275882 -5.03904 -5.612872 -2.953557 4e-06 -11.020525 -3e-06 -6.111297 -15.895334 -3.840472 0.0 1e-06 -0.0 -10.283371 -5.680288 -4.341839 11.028296 -11.302406 -2.372635 -1.384267 -14.238579 -6.320123 -0.625435 -26.924191 -3.827605 -4.184781 -50.585621 -3.78251 -13.708524 -7.363476 -3.72094 18.141151 -14.052739 -3.242676 6e-06 -18.787271 -3e-06 -0.429711 -8.456045 2.555503 -1e-06 -1e-06 1e-06 -15.923534 -20.094482 -5.473586 30.419214 -7.190827 1.735923 2e-06 -8.162922 0.0 -1.8619 -22.861467 -6.167942 -1e-06 -2e-06 -1e-06 103.733795 -6.296129 10.604047 129.689545 0.965822 0.637286 -45.873909 17.68799 5.524154 -9.182762 1.388442 2.021624 -0.999999 -0.0 0.0 -25.08021 1.96725 7.198318 76.344429 -0.687358 -0.433357 -32.842827 19.209028 1.170539 -8.48518 0.526444 1.466191 -1.000004 -0.0 1e-06 
